name C:\Users\Nicos\Desktop\Gil_twoSteps\Study2\ExperimentalData\IK_Splined\twoSteps_IK_BSplines_225_meshInts_study2_p02_s_01_lowIK_modROI.mot
datacolumns 38
datarows 8
range 0.65548444 0.65867199
endheader
                time	         pelvis_tilt	         pelvis_list	     pelvis_rotation	           pelvis_tx	           pelvis_ty	           pelvis_tz	       hip_flexion_r	     hip_adduction_r	      hip_rotation_r	        knee_angle_r	       ankle_angle_r	    subtalar_angle_r	         mtp_angle_r	       hip_flexion_l	     hip_adduction_l	      hip_rotation_l	        knee_angle_l	       ankle_angle_l	    subtalar_angle_l	         mtp_angle_l	    lumbar_extension	      lumbar_bending	     lumbar_rotation	          arm_flex_r	           arm_add_r	           arm_rot_r	        elbow_flex_r	           pro_sup_r	        wrist_flex_r	         wrist_dev_r	          arm_flex_l	           arm_add_l	           arm_rot_l	        elbow_flex_l	           pro_sup_l	        wrist_flex_l	         wrist_dev_l	
          0.65548444	        -17.57065160	          3.71166611	          9.43851916	          0.31068387	          0.89304726	          0.33989302	         30.78606474	         -9.44468646	        -15.92597177	       -111.47570695	        -14.76020655	        -31.60182067	         -8.95000326	         30.71269631	          6.10228370	         -0.07010168	        -50.34536486	         22.07131094	         -8.94303846	          6.11472212	        -27.91376844	         -8.94918772	         -2.18633592	        -29.92315695	        -10.33623791	        -16.03196203	         48.92929894	         77.13648207	        -27.09889418	         30.45361929	         -1.97496044	        -11.70308096	         -7.81266644	         69.28469233	         69.42450205	          4.67894248	         19.76251865	
          0.65548444	        -17.57065160	          3.71166611	          9.43851916	          0.31068387	          0.89304726	          0.33989302	         30.78606474	         -9.44468646	        -15.92597177	       -111.47570695	        -14.76020655	        -31.60182067	         -8.95000326	         30.71269631	          6.10228370	         -0.07010168	        -50.34536486	         22.07131094	         -8.94303846	          6.11472212	        -27.91376844	         -8.94918772	         -2.18633592	        -29.92315695	        -10.33623791	        -16.03196203	         48.92929894	         77.13648207	        -27.09889418	         30.45361929	         -1.97496044	        -11.70308096	         -7.81266644	         69.28469233	         69.42450205	          4.67894248	         19.76251865	
          0.65578490	        -17.58372745	          3.68407770	          9.52166482	          0.31223449	          0.89296363	          0.33979205	         30.98951690	         -9.46960807	        -15.96351438	       -111.63223715	        -14.64175156	        -31.59118469	         -8.93057024	         30.60364408	          6.09787007	         -0.01036070	        -50.30608162	         22.09183773	         -8.93889200	          6.15960526	        -27.89499280	         -8.86353425	         -2.19766988	        -30.09788646	        -10.29600426	        -16.08444670	         48.73090739	         77.14530966	        -27.08691258	         30.50441062	         -1.74940320	        -11.65037005	         -7.72961599	         69.43200039	         69.38978040	          4.68080255	         19.74919304	
          0.65673421	        -17.62219397	          3.59361315	          9.79461753	          0.31711922	          0.89270494	          0.33947192	         31.63383767	         -9.55642071	        -16.08544516	       -112.10761342	        -14.27154227	        -31.55642759	         -8.86610060	         30.26190804	          6.07533986	          0.18585741	        -50.18238760	         22.13374587	         -8.91619301	          6.31253338	        -27.83655990	         -8.58216949	         -2.24644015	        -30.66991719	        -10.15157952	        -16.29823471	         48.19745106	         77.14593425	        -27.04464102	         30.65291109	         -1.04642183	        -11.48011096	         -7.46709835	         69.92905637	         69.25515249	          4.68447052	         19.71276695	
          0.65742222	        -17.64993002	          3.52788464	          9.99295082	          0.32065868	          0.89251772	          0.33923986	         32.10088058	         -9.61974118	        -16.17397942	       -112.45118036	        -14.00343795	        -31.53117998	         -8.81922314	         30.01437780	          6.05858204	          0.32843844	        -50.09276224	         22.16297140	         -8.89926223	          6.42392293	        -27.79425547	         -8.37771519	         -2.28243402	        -31.08549117	        -10.04604345	        -16.45557390	         47.81549940	         77.14502384	        -27.01378425	         30.75993719	         -0.53742396	        -11.35653089	         -7.27683443	         70.29087597	         69.15633576	          4.68701842	         19.68665113	
          0.65742222	        -17.64993002	          3.52788464	          9.99295082	          0.32065868	          0.89251772	          0.33923986	         32.10088058	         -9.61974118	        -16.17397942	       -112.45118036	        -14.00343795	        -31.53117998	         -8.81922314	         30.01437780	          6.05858204	          0.32843844	        -50.09276224	         22.16297140	         -8.89926223	          6.42392293	        -27.79425547	         -8.37771519	         -2.28243402	        -31.08549117	        -10.04604345	        -16.45557390	         47.81549940	         77.14502384	        -27.01378425	         30.75993719	         -0.53742396	        -11.35653089	         -7.27683443	         70.29087597	         69.15633576	          4.68701842	         19.68665113	
          0.65772268	        -17.66204237	          3.49918095	         10.07956310	          0.32220436	          0.89243596	          0.33913852	         32.30483854	         -9.64739327	        -16.21264238	       -112.60121627	        -13.88635661	        -31.52015433	         -8.79875172	         29.90628117	          6.05126388	          0.39070368	        -50.05362279	         22.17573421	         -8.89186855	          6.47256682	        -27.77578109	         -8.28842986	         -2.29815256	        -31.26697261	         -9.99995578	        -16.52428404	         47.64870085	         77.14462626	        -27.00030907	         30.80667556	         -0.31514424	        -11.30256338	         -7.19374605	         70.44888283	         69.11318243	          4.68813110	         19.67524634	
          0.65867199	        -17.69705305	          3.40534245	         10.36125319	          0.32707635	          0.89218326	          0.33881688	         32.94975664	         -9.74172027	        -16.33646165	       -113.05753493	        -13.51969615	        -31.48438514	         -8.73094417	         29.56508723	          6.01993779	          0.59480381	        -49.92792775	         22.19892708	         -8.85998185	          6.63511707	        -27.71791425	         -7.99695935	         -2.36019981	        -31.85673041	         -9.83934569	        -16.78519714	         47.20356212	         77.13275376	        -26.95350458	         30.94665800	          0.37752213	        -11.12916437	         -6.93230443	         70.97639456	         68.95423723	          4.68965029	         19.64345373	
